<svg width="27" height="27" viewBox="0 0 27 27" fill="none" xmlns="http://www.w3.org/2000/svg">
<g clip-path="url(#clip0_38_5587)">
<path d="M4.5 10.2075H10.2075V4.5H18V10.785H19.5V4.5C19.5 4.10218 19.342 3.72064 19.0607 3.43934C18.7794 3.15804 18.3978 3 18 3H8.1525L3 8.1525V22.5C3 22.8978 3.15804 23.2794 3.43934 23.5607C3.72064 23.842 4.10218 24 4.5 24H18C18.3978 24 18.7794 23.842 19.0607 23.5607C19.342 23.2794 19.5 22.8978 19.5 22.5H4.5V10.2075ZM4.5 8.7675L8.7675 4.5H9V9H4.5V8.7675Z" fill="black"/>
<path d="M21.24 12.2625C21.0965 12.1396 20.912 12.0754 20.7232 12.0827C20.5345 12.09 20.3554 12.1683 20.2218 12.3018C20.0883 12.4354 20.01 12.6144 20.0027 12.8032C19.9954 12.992 20.0596 13.1765 20.1825 13.32L22.62 15.75H13.5C13.3011 15.75 13.1103 15.829 12.9697 15.9697C12.829 16.1103 12.75 16.3011 12.75 16.5C12.75 16.6989 12.829 16.8897 12.9697 17.0303C13.1103 17.171 13.3011 17.25 13.5 17.25H22.6425L20.1825 19.71C20.104 19.7772 20.0402 19.86 19.9952 19.953C19.9502 20.0461 19.9249 20.1474 19.9209 20.2507C19.9169 20.354 19.9343 20.457 19.972 20.5532C20.0097 20.6495 20.0669 20.7369 20.14 20.81C20.2131 20.8831 20.3005 20.9403 20.3968 20.978C20.493 21.0157 20.596 21.0331 20.6993 21.0291C20.8026 21.0251 20.9039 20.9998 20.997 20.9548C21.09 20.9098 21.1728 20.846 21.24 20.7675L25.5 16.5L21.24 12.2625Z" fill="black"/>
</g>
<defs>
<clipPath id="clip0_38_5587">
<rect width="27" height="27" fill="white"/>
</clipPath>
</defs>
</svg>
