<svg width="29" height="29" viewBox="0 0 29 29" fill="none" xmlns="http://www.w3.org/2000/svg">
<path d="M28 25.0395V15.0729C28 14.2697 27.8344 13.475 27.5134 12.737C27.1924 11.9991 26.7225 11.3332 26.1325 10.7801L16.567 1.81415C16.0095 1.29144 15.2698 1 14.5008 1C13.7317 1 12.9921 1.29144 12.4345 1.81415L2.8675 10.7801C2.27748 11.3332 1.80765 11.9991 1.48661 12.737C1.16556 13.475 0.999999 14.2697 1 15.0729V25.0395C1 25.8247 1.31607 26.5777 1.87868 27.1329C2.44129 27.6881 3.20435 28 4 28H25C25.7957 28 26.5587 27.6881 27.1213 27.1329C27.6839 26.5777 28 25.8247 28 25.0395Z" stroke="#1E1E1E" stroke-width="2" stroke-linecap="round" stroke-linejoin="round"/>
</svg>
