<svg width="27" height="27" viewBox="0 0 27 27" fill="none" xmlns="http://www.w3.org/2000/svg">
<path fill-rule="evenodd" clip-rule="evenodd" d="M5.71388 5.70262C9.98326 1.43887 16.9245 1.48387 21.2198 5.78024C25.5173 10.0777 25.5623 17.0224 21.2918 21.2917C17.0224 25.5611 10.0778 25.5172 5.78026 21.2197C4.57144 20.0159 3.65811 18.5483 3.11195 16.9321C2.5658 15.3159 2.40169 13.5951 2.63251 11.9047C2.66279 11.6829 2.77996 11.4822 2.95824 11.3467C3.13651 11.2113 3.3613 11.1522 3.58313 11.1825C3.80497 11.2128 4.00569 11.3299 4.14114 11.5082C4.27659 11.6865 4.33567 11.9113 4.30538 12.1331C4.10945 13.5656 4.24835 15.024 4.71118 16.3937C5.174 17.7634 5.94813 19.0072 6.97276 20.0272C10.6234 23.6767 16.4993 23.6981 20.0993 20.0992C23.6981 16.4992 23.6768 10.6234 20.0273 6.97274C16.3789 3.32549 10.5064 3.30187 6.90638 6.89624L7.74788 6.89962C7.85869 6.90014 7.9683 6.92247 8.07047 6.96535C8.17264 7.00823 8.26537 7.07082 8.34335 7.14953C8.42133 7.22825 8.48305 7.32155 8.52498 7.42412C8.5669 7.52668 8.58821 7.6365 8.5877 7.74731C8.58718 7.85811 8.56484 7.96773 8.52196 8.0699C8.47908 8.17207 8.4165 8.26479 8.33778 8.34277C8.25907 8.42076 8.16576 8.48247 8.0632 8.5244C7.96063 8.56632 7.85081 8.58764 7.74001 8.58712L4.87576 8.57362C4.65335 8.57243 4.4404 8.48348 4.28323 8.3261C4.12606 8.16873 4.03739 7.95566 4.03651 7.73324L4.02188 4.87124C4.02129 4.76044 4.04253 4.65061 4.08439 4.54801C4.12624 4.44542 4.1879 4.35207 4.26583 4.2733C4.34376 4.19454 4.43644 4.13189 4.53859 4.08894C4.64073 4.04599 4.75033 4.02358 4.86113 4.02299C4.97194 4.0224 5.08177 4.04364 5.18436 4.0855C5.28696 4.12735 5.3803 4.18901 5.45907 4.26694C5.53784 4.34487 5.60049 4.43755 5.64343 4.5397C5.68638 4.64184 5.70879 4.75144 5.70938 4.86224L5.71388 5.70374V5.70262ZM13.4989 8.15512C13.7227 8.15512 13.9373 8.24401 14.0955 8.40225C14.2537 8.56048 14.3426 8.77509 14.3426 8.99887V13.1501L16.9088 15.7151C16.9894 15.7929 17.0537 15.886 17.098 15.9889C17.1422 16.0918 17.1656 16.2025 17.1666 16.3146C17.1676 16.4266 17.1463 16.5377 17.1039 16.6414C17.0616 16.7451 16.999 16.8394 16.9198 16.9186C16.8406 16.9979 16.7464 17.0606 16.6427 17.1031C16.5391 17.1455 16.428 17.1669 16.3159 17.166C16.2039 17.1651 16.0932 17.1419 15.9902 17.0977C15.8873 17.0535 15.7941 16.9893 15.7163 16.9087L12.6563 13.8487V8.99999C12.6563 8.77622 12.7452 8.56161 12.9034 8.40337C13.0616 8.24514 13.2762 8.15624 13.5 8.15624L13.4989 8.15512Z" fill="#1E1E1E"/>
</svg>
