<svg width="27" height="27" viewBox="0 0 27 27" fill="none" xmlns="http://www.w3.org/2000/svg">
<path d="M18.0113 7.875L18 4.5C18 3.88125 17.4937 3.375 16.875 3.375C16.2563 3.375 15.75 3.88125 15.75 4.5V7.875H11.25V4.5C11.25 3.88125 10.7438 3.375 10.125 3.375C9.50625 3.375 9 3.88125 9 4.5V7.875H8.98875C7.7625 7.875 6.75 8.8875 6.75 10.1137V15.3562C6.75 15.9525 6.98625 16.5263 7.4025 16.9425L10.6875 20.25V22.5C10.6875 23.1187 11.1937 23.625 11.8125 23.625H15.1875C15.8062 23.625 16.3125 23.1187 16.3125 22.5V20.25L19.5975 16.965C20.0138 16.5375 20.25 15.9637 20.25 15.3675V10.1137C20.25 8.87625 19.2488 7.875 18.0113 7.875Z" fill="#1E1E1E"/>
</svg>
