<svg width="27" height="27" viewBox="0 0 27 27" fill="none" xmlns="http://www.w3.org/2000/svg">
<path fill-rule="evenodd" clip-rule="evenodd" d="M13.5 9.28125C12.3811 9.28125 11.3081 9.72572 10.5169 10.5169C9.72572 11.3081 9.28125 12.3811 9.28125 13.5C9.28125 14.6189 9.72572 15.6919 10.5169 16.4831C11.3081 17.2743 12.3811 17.7188 13.5 17.7188C14.6189 17.7188 15.6919 17.2743 16.4831 16.4831C17.2743 15.6919 17.7188 14.6189 17.7188 13.5C17.7188 12.3811 17.2743 11.3081 16.4831 10.5169C15.6919 9.72572 14.6189 9.28125 13.5 9.28125ZM10.9688 13.5C10.9688 12.8287 11.2354 12.1848 11.7101 11.7101C12.1848 11.2354 12.8287 10.9688 13.5 10.9688C14.1713 10.9688 14.8152 11.2354 15.2899 11.7101C15.7646 12.1848 16.0312 12.8287 16.0312 13.5C16.0312 14.1713 15.7646 14.8152 15.2899 15.2899C14.8152 15.7646 14.1713 16.0312 13.5 16.0312C12.8287 16.0312 12.1848 15.7646 11.7101 15.2899C11.2354 14.8152 10.9688 14.1713 10.9688 13.5Z" fill="#1E1E1E"/>
<path fill-rule="evenodd" clip-rule="evenodd" d="M13.472 1.40625C12.9714 1.40625 12.554 1.40625 12.212 1.42875C11.8624 1.44331 11.5176 1.51553 11.1916 1.6425C10.8161 1.79785 10.475 2.02564 10.1875 2.31287C9.90011 2.6001 9.67209 2.94114 9.51649 3.3165C9.35336 3.71025 9.30949 4.1265 9.29149 4.57875C9.28969 4.74415 9.2459 4.90638 9.16424 5.05022C9.08258 5.19407 8.96571 5.31481 8.82461 5.40113C8.67936 5.48044 8.51632 5.52154 8.35082 5.52055C8.18533 5.51957 8.02279 5.47654 7.87849 5.3955C7.47799 5.184 7.09549 5.01413 6.67249 4.95788C6.26968 4.90489 5.86037 4.93177 5.46795 5.03697C5.07552 5.14217 4.70766 5.32363 4.38536 5.571C4.11286 5.79024 3.87834 6.05288 3.69124 6.34838C3.49999 6.63413 3.29074 6.99525 3.04099 7.42838L3.01286 7.47787C2.76199 7.911 2.55386 8.27212 2.40311 8.58037C2.24561 8.90212 2.12186 9.21938 2.07686 9.57038C1.96954 10.3837 2.18968 11.2064 2.68886 11.8575C2.94874 12.1961 3.28736 12.4425 3.66986 12.6833C3.81247 12.7676 3.93128 12.8868 4.01512 13.0296C4.09896 13.1725 4.14507 13.3344 4.14911 13.5C4.14507 13.6656 4.09896 13.8275 4.01512 13.9704C3.93128 14.1132 3.81247 14.2324 3.66986 14.3167C3.28736 14.5575 2.94986 14.8039 2.68886 15.1425C2.44149 15.4648 2.26003 15.8327 2.15483 16.2251C2.04963 16.6175 2.02275 17.0268 2.07574 17.4296C2.12186 17.7806 2.24449 18.0979 2.40199 18.4196C2.55386 18.7279 2.76199 19.089 3.01286 19.5221L3.04099 19.5716C3.29074 20.0047 3.49999 20.3659 3.69124 20.6516C3.89036 20.9475 4.10411 21.2141 4.38536 21.4279C4.70757 21.6754 5.0754 21.8571 5.46783 21.9625C5.86025 22.0679 6.2696 22.095 6.67249 22.0421C7.09549 21.9859 7.47799 21.8171 7.87849 21.6045C8.02262 21.5236 8.18496 21.4806 8.35026 21.4796C8.51556 21.4786 8.6784 21.5197 8.82349 21.5989C8.96537 21.6845 9.08297 21.8051 9.16509 21.949C9.24721 22.093 9.29111 22.2555 9.29261 22.4212C9.30949 22.8735 9.35336 23.2897 9.51761 23.6835C9.67296 24.059 9.90076 24.4002 10.188 24.6876C10.4752 24.975 10.8162 25.203 11.1916 25.3586C11.5179 25.4936 11.8554 25.5465 12.212 25.5701C12.554 25.5938 12.9714 25.5938 13.472 25.5938H13.5282C14.0289 25.5938 14.4462 25.5938 14.7882 25.5712C15.146 25.5465 15.4824 25.4936 15.8086 25.3575C16.1841 25.2022 16.5253 24.9744 16.8127 24.6871C17.1001 24.3999 17.3281 24.0589 17.4837 23.6835C17.6469 23.2897 17.6907 22.8735 17.7087 22.4212C17.7103 22.2557 17.754 22.0932 17.8357 21.9491C17.9174 21.8051 18.0344 21.6842 18.1756 21.5977C18.321 21.5186 18.484 21.4777 18.6495 21.4789C18.815 21.4801 18.9775 21.5233 19.1217 21.6045C19.5222 21.816 19.9047 21.9859 20.3277 22.041C21.1411 22.1483 21.9638 21.9282 22.6149 21.429C22.8961 21.213 23.1099 20.9475 23.309 20.6516C23.5002 20.3659 23.7095 20.0047 23.9592 19.5716L23.9874 19.5221C24.2382 19.089 24.4464 18.7279 24.5971 18.4196C24.7546 18.0979 24.8784 17.7795 24.9234 17.4296C25.0307 16.6163 24.8105 15.7936 24.3114 15.1425C24.0515 14.8039 23.7129 14.5575 23.3304 14.3167C23.1878 14.2324 23.0689 14.1132 22.9851 13.9704C22.9013 13.8275 22.8552 13.6656 22.8511 13.5C22.8511 13.1873 23.0221 12.8767 23.3304 12.6833C23.7129 12.4425 24.0504 12.1961 24.3114 11.8575C24.5587 11.5352 24.7402 11.1673 24.8454 10.7749C24.9506 10.3825 24.9775 9.97319 24.9245 9.57038C24.8709 9.22467 24.7607 8.89018 24.5982 8.58037C24.4062 8.20659 24.2024 7.83891 23.9874 7.47787L23.9592 7.42838C23.7537 7.06172 23.5369 6.70155 23.309 6.34838C23.1219 6.0532 22.8874 5.79092 22.6149 5.57212C22.2927 5.32456 21.9248 5.14289 21.5324 5.0375C21.14 4.9321 20.7306 4.90505 20.3277 4.95788C19.9047 5.01413 19.5222 5.18287 19.1217 5.3955C18.9776 5.47634 18.8152 5.51926 18.65 5.52024C18.4847 5.52123 18.3219 5.48024 18.1767 5.40113C18.0352 5.31508 17.9179 5.19446 17.8358 5.0506C17.7538 4.90673 17.7097 4.74436 17.7076 4.57875C17.6907 4.1265 17.6469 3.71025 17.4826 3.3165C17.3273 2.94103 17.0995 2.59984 16.8122 2.31242C16.525 2.025 16.184 1.79698 15.8086 1.64137C15.4824 1.50637 15.1449 1.4535 14.7882 1.42988C14.4462 1.40625 14.0289 1.40625 13.5282 1.40625H13.472ZM11.8374 3.20063C11.924 3.16463 12.0556 3.132 12.3267 3.11287C12.6046 3.09375 12.9646 3.09375 13.5001 3.09375C14.0356 3.09375 14.3956 3.09375 14.6735 3.11287C14.9446 3.132 15.0762 3.16463 15.1629 3.20063C15.5082 3.3435 15.7816 3.61688 15.9245 3.96225C15.9695 4.07025 16.0066 4.24012 16.0212 4.64175C16.055 5.53275 16.5151 6.39112 17.3319 6.8625C18.1486 7.335 19.1217 7.3035 19.9104 6.88725C20.2659 6.69938 20.4312 6.6465 20.5482 6.63188C20.9179 6.58303 21.2918 6.68298 21.5877 6.90975C21.662 6.96713 21.7565 7.065 21.9084 7.29C22.0647 7.52175 22.2447 7.83337 22.5125 8.29688C22.7802 8.76038 22.9591 9.07312 23.0817 9.32287C23.2021 9.567 23.2392 9.6975 23.2505 9.79088C23.2993 10.1605 23.1994 10.5344 22.9726 10.8304C22.9006 10.9237 22.7724 11.0407 22.4326 11.2545C21.6766 11.7292 21.1636 12.5573 21.1636 13.5C21.1636 14.4427 21.6766 15.2708 22.4326 15.7455C22.7724 15.9593 22.9006 16.0763 22.9726 16.1696C23.1999 16.4655 23.2989 16.839 23.2505 17.2091C23.2392 17.3025 23.201 17.4341 23.0817 17.6771C22.9591 17.928 22.7802 18.2396 22.5125 18.7031C22.2447 19.1666 22.0636 19.4783 21.9084 19.71C21.7565 19.935 21.662 20.0329 21.5877 20.0903C21.2918 20.317 20.9179 20.417 20.5482 20.3681C20.4312 20.3535 20.267 20.3006 19.9104 20.1128C19.1229 19.6965 18.1486 19.665 17.3319 20.1364C16.5151 20.6089 16.055 21.4673 16.0212 22.3582C16.0066 22.7599 15.9695 22.9298 15.9245 23.0378C15.8538 23.2085 15.7502 23.3637 15.6195 23.4944C15.4888 23.6251 15.3336 23.7287 15.1629 23.7994C15.0762 23.8354 14.9446 23.868 14.6735 23.8871C14.3956 23.9062 14.0356 23.9062 13.5001 23.9062C12.9646 23.9062 12.6046 23.9062 12.3267 23.8871C12.0556 23.868 11.924 23.8354 11.8374 23.7994C11.6666 23.7287 11.5114 23.6251 11.3807 23.4944C11.2501 23.3637 11.1464 23.2085 11.0757 23.0378C11.0307 22.9298 10.9936 22.7599 10.979 22.3582C10.9452 21.4673 10.4851 20.6089 9.66836 20.1375C8.85161 19.665 7.87849 19.6965 7.08986 20.1128C6.73436 20.3006 6.56899 20.3535 6.45199 20.3681C6.08235 20.417 5.70845 20.317 5.41249 20.0903C5.33824 20.0329 5.24374 19.935 5.09186 19.71C4.88026 19.3806 4.67879 19.0448 4.48774 18.7031C4.21999 18.2396 4.04111 17.9269 3.91849 17.6771C3.79811 17.433 3.76099 17.3025 3.74974 17.2091C3.7009 16.8395 3.80085 16.4656 4.02761 16.1696C4.09961 16.0763 4.22786 15.9593 4.56761 15.7455C5.32361 15.2708 5.83661 14.4427 5.83661 13.5C5.83661 12.5573 5.32361 11.7292 4.56761 11.2545C4.22786 11.0407 4.09961 10.9237 4.02761 10.8304C3.80085 10.5344 3.7009 10.1605 3.74974 9.79088C3.76099 9.6975 3.79924 9.56588 3.91849 9.32287C4.04111 9.072 4.21999 8.76038 4.48774 8.29688C4.75549 7.83337 4.93661 7.52175 5.09186 7.29C5.24374 7.065 5.33824 6.96713 5.41249 6.90975C5.70845 6.68298 6.08235 6.58303 6.45199 6.63188C6.56899 6.6465 6.73324 6.69938 7.08986 6.88725C7.87736 7.3035 8.85161 7.335 9.66836 6.8625C10.4851 6.39112 10.9452 5.53275 10.979 4.64175C10.9936 4.24012 11.0307 4.07025 11.0757 3.96225C11.2186 3.61688 11.492 3.3435 11.8374 3.20063Z" fill="#1E1E1E"/>
</svg>
