<svg width="27" height="27" viewBox="0 0 27 27" fill="none" xmlns="http://www.w3.org/2000/svg">
<path d="M19.1914 17.4611C19.7176 17.1017 20.3349 16.8987 20.9717 16.8755C21.6086 16.8523 22.239 17.0099 22.79 17.33C23.3411 17.6501 23.7902 18.1197 24.0855 18.6844C24.3808 19.2491 24.5101 19.8859 24.4586 20.5211C23.1088 20.9929 21.6751 21.1765 20.25 21.06C20.2456 19.785 19.8784 18.5364 19.1914 17.4623C18.5815 16.5058 17.7402 15.7185 16.7454 15.1734C15.7506 14.6283 14.6344 14.343 13.5 14.3438C12.3658 14.3432 11.2498 14.6286 10.2552 15.1737C9.26057 15.7188 8.41949 16.5059 7.80973 17.4623M20.2489 21.0589L20.25 21.0938C20.25 21.3469 20.2365 21.5966 20.2084 21.843C18.1669 23.0143 15.8536 23.6288 13.5 23.625C11.0587 23.625 8.76711 22.977 6.79161 21.843C6.76269 21.5826 6.74879 21.3208 6.74998 21.0589M6.74998 21.0589C5.32532 21.1795 3.89238 20.9967 2.54361 20.5223C2.49225 19.8872 2.62168 19.2507 2.91692 18.6861C3.21215 18.1216 3.66115 17.6521 4.21199 17.3321C4.76282 17.012 5.393 16.8544 6.02967 16.8774C6.66633 16.9004 7.28347 17.1032 7.80973 17.4623M6.74998 21.0589C6.75402 19.7839 7.12306 18.5365 7.80973 17.4623M16.875 7.59375C16.875 8.48886 16.5194 9.3473 15.8865 9.98024C15.2535 10.6132 14.3951 10.9688 13.5 10.9688C12.6049 10.9688 11.7464 10.6132 11.1135 9.98024C10.4806 9.3473 10.125 8.48886 10.125 7.59375C10.125 6.69864 10.4806 5.8402 11.1135 5.20726C11.7464 4.57433 12.6049 4.21875 13.5 4.21875C14.3951 4.21875 15.2535 4.57433 15.8865 5.20726C16.5194 5.8402 16.875 6.69864 16.875 7.59375ZM23.625 10.9688C23.625 11.3012 23.5595 11.6303 23.4323 11.9374C23.3051 12.2445 23.1186 12.5236 22.8836 12.7586C22.6485 12.9937 22.3695 13.1801 22.0624 13.3073C21.7553 13.4345 21.4261 13.5 21.0937 13.5C20.7613 13.5 20.4322 13.4345 20.1251 13.3073C19.818 13.1801 19.5389 12.9937 19.3039 12.7586C19.0688 12.5236 18.8824 12.2445 18.7552 11.9374C18.628 11.6303 18.5625 11.3012 18.5625 10.9688C18.5625 10.2974 18.8292 9.65359 19.3039 9.17889C19.7786 8.70418 20.4224 8.4375 21.0937 8.4375C21.7651 8.4375 22.4089 8.70418 22.8836 9.17889C23.3583 9.65359 23.625 10.2974 23.625 10.9688ZM8.43748 10.9688C8.43748 11.3012 8.37201 11.6303 8.2448 11.9374C8.1176 12.2445 7.93115 12.5236 7.6961 12.7586C7.46105 12.9937 7.18201 13.1801 6.8749 13.3073C6.5678 13.4345 6.23864 13.5 5.90623 13.5C5.57382 13.5 5.24467 13.4345 4.93757 13.3073C4.63046 13.1801 4.35142 12.9937 4.11637 12.7586C3.88132 12.5236 3.69487 12.2445 3.56766 11.9374C3.44046 11.6303 3.37498 11.3012 3.37498 10.9688C3.37498 10.2974 3.64167 9.65359 4.11637 9.17889C4.59107 8.70418 5.2349 8.4375 5.90623 8.4375C6.57756 8.4375 7.2214 8.70418 7.6961 9.17889C8.1708 9.65359 8.43748 10.2974 8.43748 10.9688Z" stroke="#1E1E1E" stroke-width="1.5" stroke-linecap="round" stroke-linejoin="round"/>
</svg>
